<mxfile modified="2020-02-25T22:08:04.045Z" host="www.draw.io" agent="Mozilla/5.0 (Macintosh; Intel Mac OS X 10.14; rv:72.0) Gecko/20100101 Firefox/72.0" etag="qti4h4Uib-r18kyhxtSb" version="12.7.6" type="github">
  <diagram name="Page-1" id="97916047-d0de-89f5-080d-49f4d83e522f">
    <mxGraphModel dx="1112" dy="849" grid="1" gridSize="10" guides="1" tooltips="1" connect="1" arrows="1" fold="1" page="1" pageScale="1.5" pageWidth="1169" pageHeight="827" background="#ffffff" math="0" shadow="0">
      <root>
        <mxCell id="0" />
        <mxCell id="1" parent="0" />
        <mxCell id="2" value="National Speleological &#xa;Society" style="rounded=1;fillColor=#10739E;strokeColor=none;shadow=1;gradientColor=none;fontStyle=1;fontColor=#FFFFFF;fontSize=14;" parent="1" vertex="1">
          <mxGeometry x="793" y="200" width="200" height="60" as="geometry" />
        </mxCell>
        <mxCell id="XbL_aU_zqg1Q1aakX1Da-62" value="" style="edgeStyle=orthogonalEdgeStyle;rounded=0;orthogonalLoop=1;jettySize=auto;html=1;strokeWidth=3;fontSize=19;" parent="1" source="4" target="XbL_aU_zqg1Q1aakX1Da-61" edge="1">
          <mxGeometry relative="1" as="geometry">
            <Array as="points">
              <mxPoint x="640" y="550" />
              <mxPoint x="740" y="550" />
            </Array>
          </mxGeometry>
        </mxCell>
        <mxCell id="XbL_aU_zqg1Q1aakX1Da-64" value="" style="edgeStyle=orthogonalEdgeStyle;rounded=0;orthogonalLoop=1;jettySize=auto;html=1;strokeWidth=3;fontSize=19;exitX=0.5;exitY=1;exitDx=0;exitDy=0;" parent="1" source="4" target="XbL_aU_zqg1Q1aakX1Da-63" edge="1">
          <mxGeometry relative="1" as="geometry">
            <Array as="points">
              <mxPoint x="640" y="550" />
              <mxPoint x="530" y="550" />
            </Array>
          </mxGeometry>
        </mxCell>
        <mxCell id="4" value="Grottos" style="rounded=1;fillColor=#10739E;strokeColor=none;shadow=1;gradientColor=none;fontStyle=1;fontColor=#FFFFFF;fontSize=14;" parent="1" vertex="1">
          <mxGeometry x="540" y="455.5" width="200" height="60" as="geometry" />
        </mxCell>
        <mxCell id="XbL_aU_zqg1Q1aakX1Da-67" value="" style="edgeStyle=orthogonalEdgeStyle;rounded=0;orthogonalLoop=1;jettySize=auto;html=1;strokeWidth=3;fontSize=19;" parent="1" source="XbL_aU_zqg1Q1aakX1Da-63" target="XbL_aU_zqg1Q1aakX1Da-66" edge="1">
          <mxGeometry relative="1" as="geometry" />
        </mxCell>
        <mxCell id="XbL_aU_zqg1Q1aakX1Da-63" value="Southern California&#xa;Grotto" style="rounded=1;fillColor=#10739E;strokeColor=none;shadow=1;gradientColor=none;fontStyle=1;fontColor=#FFFFFF;fontSize=14;" parent="1" vertex="1">
          <mxGeometry x="430" y="580" width="200" height="60" as="geometry" />
        </mxCell>
        <mxCell id="XbL_aU_zqg1Q1aakX1Da-86" value="" style="edgeStyle=orthogonalEdgeStyle;rounded=0;orthogonalLoop=1;jettySize=auto;html=1;strokeWidth=3;fontSize=19;" parent="1" source="XbL_aU_zqg1Q1aakX1Da-66" edge="1">
          <mxGeometry relative="1" as="geometry">
            <mxPoint x="880" y="780" as="targetPoint" />
            <Array as="points">
              <mxPoint x="530" y="730" />
              <mxPoint x="880" y="730" />
            </Array>
          </mxGeometry>
        </mxCell>
        <mxCell id="XbL_aU_zqg1Q1aakX1Da-66" value="Desert Dog Troglodytes" style="rounded=1;fillColor=#10739E;strokeColor=none;shadow=1;gradientColor=none;fontStyle=1;fontColor=#FFFFFF;fontSize=14;" parent="1" vertex="1">
          <mxGeometry x="430" y="650" width="200" height="60" as="geometry" />
        </mxCell>
        <mxCell id="XbL_aU_zqg1Q1aakX1Da-69" value="" style="edgeStyle=orthogonalEdgeStyle;rounded=0;orthogonalLoop=1;jettySize=auto;html=1;strokeWidth=3;fontSize=19;" parent="1" source="XbL_aU_zqg1Q1aakX1Da-61" edge="1">
          <mxGeometry relative="1" as="geometry">
            <mxPoint x="740" y="650" as="targetPoint" />
          </mxGeometry>
        </mxCell>
        <mxCell id="XbL_aU_zqg1Q1aakX1Da-71" value="" style="edgeStyle=orthogonalEdgeStyle;rounded=0;orthogonalLoop=1;jettySize=auto;html=1;strokeWidth=3;fontSize=19;" parent="1" source="XbL_aU_zqg1Q1aakX1Da-61" target="XbL_aU_zqg1Q1aakX1Da-70" edge="1">
          <mxGeometry relative="1" as="geometry" />
        </mxCell>
        <mxCell id="XbL_aU_zqg1Q1aakX1Da-61" value="San Diego Grotto" style="rounded=1;fillColor=#10739E;strokeColor=none;shadow=1;gradientColor=none;fontStyle=1;fontColor=#FFFFFF;fontSize=14;" parent="1" vertex="1">
          <mxGeometry x="640" y="580" width="200" height="60" as="geometry" />
        </mxCell>
        <mxCell id="XbL_aU_zqg1Q1aakX1Da-88" value="" style="edgeStyle=orthogonalEdgeStyle;rounded=0;orthogonalLoop=1;jettySize=auto;html=1;strokeWidth=3;fontSize=19;exitX=0.5;exitY=1;exitDx=0;exitDy=0;" parent="1" source="XbL_aU_zqg1Q1aakX1Da-70" edge="1">
          <mxGeometry relative="1" as="geometry">
            <mxPoint x="880" y="780" as="targetPoint" />
            <Array as="points">
              <mxPoint x="740" y="730" />
              <mxPoint x="880" y="730" />
            </Array>
          </mxGeometry>
        </mxCell>
        <mxCell id="XbL_aU_zqg1Q1aakX1Da-70" value="San Joaquin Valley&#xa;Grotto&#xa;" style="rounded=1;fillColor=#10739E;strokeColor=none;shadow=1;gradientColor=none;fontStyle=1;fontColor=#FFFFFF;fontSize=14;whiteSpace=wrap;spacing=0;verticalAlign=bottom;" parent="1" vertex="1">
          <mxGeometry x="640" y="650" width="200" height="60" as="geometry" />
        </mxCell>
        <mxCell id="XbL_aU_zqg1Q1aakX1Da-90" value="" style="edgeStyle=orthogonalEdgeStyle;rounded=0;orthogonalLoop=1;jettySize=auto;html=1;strokeWidth=3;fontSize=19;" parent="1" source="6" edge="1">
          <mxGeometry relative="1" as="geometry">
            <mxPoint x="880" y="780" as="targetPoint" />
            <Array as="points">
              <mxPoint x="880" y="580" />
              <mxPoint x="880" y="580" />
            </Array>
          </mxGeometry>
        </mxCell>
        <mxCell id="6" value="Western Region" style="rounded=1;fillColor=#10739E;strokeColor=none;shadow=1;gradientColor=none;fontStyle=1;fontColor=#FFFFFF;fontSize=14;" parent="1" vertex="1">
          <mxGeometry x="810" y="455.5" width="200" height="60" as="geometry" />
        </mxCell>
        <mxCell id="XbL_aU_zqg1Q1aakX1Da-58" style="edgeStyle=orthogonalEdgeStyle;rounded=0;orthogonalLoop=1;jettySize=auto;html=1;exitX=0.5;exitY=1;exitDx=0;exitDy=0;fontSize=19;strokeWidth=3;entryX=0.5;entryY=0;entryDx=0;entryDy=0;" parent="1" source="7" target="XbL_aU_zqg1Q1aakX1Da-60" edge="1">
          <mxGeometry relative="1" as="geometry">
            <mxPoint x="1190" y="550" as="targetPoint" />
          </mxGeometry>
        </mxCell>
        <mxCell id="7" value="Cave Research Foundation" style="rounded=1;fillColor=#10739E;strokeColor=none;shadow=1;gradientColor=none;fontStyle=1;fontColor=#FFFFFF;fontSize=14;" parent="1" vertex="1">
          <mxGeometry x="1090" y="570" width="200" height="60" as="geometry" />
        </mxCell>
        <mxCell id="29" value="" style="edgeStyle=elbowEdgeStyle;elbow=vertical;strokeWidth=4;endArrow=block;endFill=1;fontStyle=1;strokeColor=#23445D;" parent="1" source="2" edge="1">
          <mxGeometry x="22" y="165.5" width="100" height="100" as="geometry">
            <mxPoint x="22" y="265.5" as="sourcePoint" />
            <mxPoint x="772" y="345.5" as="targetPoint" />
          </mxGeometry>
        </mxCell>
        <mxCell id="31" value="" style="edgeStyle=elbowEdgeStyle;elbow=vertical;strokeWidth=4;endArrow=block;endFill=1;fontStyle=1;strokeColor=#23445D;" parent="1" target="4" edge="1">
          <mxGeometry x="22" y="165.5" width="100" height="100" as="geometry">
            <mxPoint x="772" y="405.5" as="sourcePoint" />
            <mxPoint x="122" y="165.5" as="targetPoint" />
          </mxGeometry>
        </mxCell>
        <mxCell id="32" value="" style="edgeStyle=elbowEdgeStyle;elbow=vertical;strokeWidth=4;endArrow=block;endFill=1;fontStyle=1;strokeColor=#23445D;" parent="1" target="6" edge="1">
          <mxGeometry x="22" y="165.5" width="100" height="100" as="geometry">
            <mxPoint x="772" y="405.5" as="sourcePoint" />
            <mxPoint x="122" y="165.5" as="targetPoint" />
          </mxGeometry>
        </mxCell>
        <mxCell id="33" value="" style="edgeStyle=elbowEdgeStyle;elbow=vertical;strokeWidth=4;endArrow=block;endFill=1;fontStyle=1;dashed=1;strokeColor=#23445D;entryX=0.5;entryY=0;entryDx=0;entryDy=0;" parent="1" source="2" target="7" edge="1">
          <mxGeometry x="22" y="165.5" width="100" height="100" as="geometry">
            <mxPoint x="22" y="265.5" as="sourcePoint" />
            <mxPoint x="122" y="165.5" as="targetPoint" />
            <Array as="points">
              <mxPoint x="1100" y="300" />
              <mxPoint x="1062" y="295.5" />
            </Array>
          </mxGeometry>
        </mxCell>
        <mxCell id="XbL_aU_zqg1Q1aakX1Da-55" value="Institutional Membership" style="text;html=1;resizable=0;points=[];align=center;verticalAlign=middle;labelBackgroundColor=#ffffff;fontSize=19;" parent="33" vertex="1" connectable="0">
          <mxGeometry relative="1" as="geometry">
            <mxPoint x="28.5" y="234.5" as="offset" />
          </mxGeometry>
        </mxCell>
        <mxCell id="XbL_aU_zqg1Q1aakX1Da-57" value="Internal Organizations" style="rounded=1;fillColor=#10739E;strokeColor=none;shadow=1;gradientColor=none;fontStyle=1;fontColor=#FFFFFF;fontSize=14;" parent="1" vertex="1">
          <mxGeometry x="672" y="340" width="200" height="60" as="geometry" />
        </mxCell>
        <mxCell id="XbL_aU_zqg1Q1aakX1Da-92" value="" style="edgeStyle=orthogonalEdgeStyle;rounded=0;orthogonalLoop=1;jettySize=auto;html=1;strokeWidth=3;fontSize=19;" parent="1" source="XbL_aU_zqg1Q1aakX1Da-60" edge="1">
          <mxGeometry relative="1" as="geometry">
            <mxPoint x="880" y="780" as="targetPoint" />
            <Array as="points">
              <mxPoint x="880" y="730" />
            </Array>
          </mxGeometry>
        </mxCell>
        <mxCell id="XbL_aU_zqg1Q1aakX1Da-60" value="CRF SEKI" style="rounded=1;fillColor=#10739E;strokeColor=none;shadow=1;gradientColor=none;fontStyle=1;fontColor=#FFFFFF;fontSize=14;" parent="1" vertex="1">
          <mxGeometry x="1090" y="650" width="200" height="60" as="geometry" />
        </mxCell>
        <mxCell id="XbL_aU_zqg1Q1aakX1Da-95" value="" style="edgeStyle=orthogonalEdgeStyle;rounded=0;orthogonalLoop=1;jettySize=auto;html=1;strokeWidth=3;fontSize=19;" parent="1" source="XbL_aU_zqg1Q1aakX1Da-72" edge="1">
          <mxGeometry relative="1" as="geometry">
            <mxPoint x="542" y="790" as="targetPoint" />
          </mxGeometry>
        </mxCell>
        <mxCell id="XbL_aU_zqg1Q1aakX1Da-72" value="National Parks" style="rhombus;whiteSpace=wrap;html=1;fontSize=19;fillColor=#fa6800;strokeColor=#C73500;fontColor=#ffffff;" parent="1" vertex="1">
          <mxGeometry x="430" y="830" width="223" height="210" as="geometry" />
        </mxCell>
        <mxCell id="XbL_aU_zqg1Q1aakX1Da-97" value="" style="edgeStyle=orthogonalEdgeStyle;rounded=0;orthogonalLoop=1;jettySize=auto;html=1;strokeWidth=3;fontSize=19;" parent="1" source="XbL_aU_zqg1Q1aakX1Da-73" edge="1">
          <mxGeometry relative="1" as="geometry">
            <mxPoint x="773" y="790" as="targetPoint" />
          </mxGeometry>
        </mxCell>
        <mxCell id="XbL_aU_zqg1Q1aakX1Da-73" value="BLM" style="rhombus;whiteSpace=wrap;html=1;fontSize=19;fillColor=#76608a;strokeColor=#432D57;fontColor=#ffffff;" parent="1" vertex="1">
          <mxGeometry x="661.5" y="830" width="223" height="210" as="geometry" />
        </mxCell>
        <mxCell id="XbL_aU_zqg1Q1aakX1Da-101" value="" style="edgeStyle=orthogonalEdgeStyle;rounded=0;orthogonalLoop=1;jettySize=auto;html=1;strokeWidth=3;fontSize=19;" parent="1" source="XbL_aU_zqg1Q1aakX1Da-74" edge="1">
          <mxGeometry relative="1" as="geometry">
            <mxPoint x="1236" y="790" as="targetPoint" />
          </mxGeometry>
        </mxCell>
        <mxCell id="XbL_aU_zqg1Q1aakX1Da-74" value="Private Land&lt;br&gt;Owners&lt;br&gt;" style="rhombus;whiteSpace=wrap;html=1;fontSize=19;fillColor=#a0522d;strokeColor=#6D1F00;fontColor=#ffffff;" parent="1" vertex="1">
          <mxGeometry x="1124.5" y="830" width="223" height="210" as="geometry" />
        </mxCell>
        <mxCell id="XbL_aU_zqg1Q1aakX1Da-99" value="" style="edgeStyle=orthogonalEdgeStyle;rounded=0;orthogonalLoop=1;jettySize=auto;html=1;strokeWidth=3;fontSize=19;" parent="1" source="XbL_aU_zqg1Q1aakX1Da-75" edge="1">
          <mxGeometry relative="1" as="geometry">
            <mxPoint x="1005" y="790" as="targetPoint" />
          </mxGeometry>
        </mxCell>
        <mxCell id="XbL_aU_zqg1Q1aakX1Da-75" value="Forest Service" style="rhombus;whiteSpace=wrap;html=1;fontSize=19;fillColor=#647687;strokeColor=#314354;fontColor=#ffffff;" parent="1" vertex="1">
          <mxGeometry x="893" y="830" width="223" height="210" as="geometry" />
        </mxCell>
        <mxCell id="XbL_aU_zqg1Q1aakX1Da-93" value="" style="shape=link;html=1;strokeWidth=3;fontSize=19;" parent="1" edge="1">
          <mxGeometry width="50" height="50" relative="1" as="geometry">
            <mxPoint x="541.5" y="790" as="sourcePoint" />
            <mxPoint x="1240" y="790" as="targetPoint" />
          </mxGeometry>
        </mxCell>
      </root>
    </mxGraphModel>
  </diagram>
</mxfile>
